# Blender 4.2.2 LTS
# www.blender.org
mtllib MoonBu.mtl
o Cylinder
v 0.000000 0.246070 -0.871671
v -0.000000 -0.246070 -0.871671
v -0.085439 0.246070 -0.867473
v -0.085439 -0.246070 -0.867473
v -0.170054 0.246070 -0.854922
v -0.170055 -0.246070 -0.854922
v -0.253033 0.246070 -0.834137
v -0.253033 -0.246070 -0.834137
v -0.333574 0.246070 -0.805319
v -0.333574 -0.246070 -0.805319
v -0.410903 0.246070 -0.768745
v -0.410903 -0.246070 -0.768745
v -0.484274 0.246070 -0.724768
v -0.484274 -0.246070 -0.724768
v -0.552982 0.246070 -0.673811
v 0.000000 0.000000 0.871671
v 0.000000 0.000000 -0.871671
v -0.552982 -0.246070 -0.673811
v -0.616364 0.246070 -0.616364
v -0.616364 -0.246070 -0.616364
v -0.673811 0.246070 -0.552982
v -0.673811 -0.246070 -0.552982
v -0.724768 0.246070 -0.484274
v -0.724768 -0.246070 -0.484274
v -0.768745 0.246070 -0.410903
v -0.768745 -0.246070 -0.410903
v -0.805319 0.246070 -0.333574
v -0.805319 -0.246070 -0.333574
v -0.834137 0.246070 -0.253033
v -0.834137 -0.246070 -0.253033
v -0.854922 0.246070 -0.170055
v -0.854922 -0.246070 -0.170055
v -0.867473 0.246070 -0.085439
v -0.867473 -0.246070 -0.085439
v -0.871671 0.246070 0.000000
v -0.871671 -0.246070 0.000000
v -0.867473 0.246070 0.085439
v -0.867473 -0.246070 0.085439
v -0.854922 0.246070 0.170055
v -0.854922 -0.246070 0.170055
v -0.834137 0.246070 0.253033
v -0.834137 -0.246070 0.253033
v -0.805319 0.246070 0.333574
v -0.805319 -0.246070 0.333574
v -0.768745 0.246070 0.410903
v -0.768745 -0.246070 0.410903
v -0.724768 0.246070 0.484274
v -0.724768 -0.246070 0.484274
v -0.673811 0.246070 0.552982
v -0.673811 -0.246070 0.552982
v -0.616364 0.246070 0.616364
v -0.616364 -0.246070 0.616364
v -0.552982 0.246070 0.673811
v -0.552982 -0.246070 0.673811
v -0.484274 0.246070 0.724768
v -0.484274 -0.246070 0.724768
v -0.410903 0.246070 0.768745
v -0.410903 -0.246070 0.768745
v -0.333574 0.246070 0.805319
v -0.333574 -0.246070 0.805319
v -0.253033 0.246070 0.834137
v -0.253033 -0.246070 0.834137
v -0.170054 0.246070 0.854922
v -0.170055 -0.246070 0.854922
v -0.085439 0.246070 0.867473
v -0.085439 -0.246070 0.867473
v 0.000000 0.246070 0.871671
v -0.000000 -0.246070 0.871671
vn -0.0491 -0.0000 -0.9988
vn -0.1467 -0.0000 -0.9892
vn -0.2430 -0.0000 -0.9700
vn -0.3369 -0.0000 -0.9415
vn -0.4276 -0.0000 -0.9040
vn -0.5141 -0.0000 -0.8577
vn -0.5957 -0.0000 -0.8032
vn -0.6716 -0.0000 -0.7410
vn -0.7410 -0.0000 -0.6716
vn -0.8032 -0.0000 -0.5957
vn -0.8577 -0.0000 -0.5141
vn -0.9040 -0.0000 -0.4276
vn -0.9415 -0.0000 -0.3369
vn -0.9700 -0.0000 -0.2430
vn -0.9892 -0.0000 -0.1467
vn -0.9988 -0.0000 -0.0491
vn -0.9988 -0.0000 0.0491
vn -0.9892 -0.0000 0.1467
vn -0.9700 -0.0000 0.2430
vn -0.9415 -0.0000 0.3369
vn -0.9040 -0.0000 0.4276
vn -0.8577 -0.0000 0.5141
vn -0.8032 -0.0000 0.5957
vn -0.7410 -0.0000 0.6716
vn -0.6716 -0.0000 0.7410
vn -0.5957 -0.0000 0.8032
vn -0.5141 -0.0000 0.8577
vn -0.4276 -0.0000 0.9040
vn -0.3369 -0.0000 0.9415
vn -0.2430 -0.0000 0.9700
vn -0.1467 -0.0000 0.9892
vn -0.0491 -0.0000 0.9988
vn -0.0000 -1.0000 -0.0000
vn -0.0000 1.0000 -0.0000
vn 1.0000 -0.0000 -0.0000
vt 0.984375 1.000000
vt 0.984375 0.500000
vt 1.000000 0.500000
vt 1.000000 0.750000
vt 1.000000 1.000000
vt 0.968750 1.000000
vt 0.968750 0.500000
vt 0.953125 1.000000
vt 0.953125 0.500000
vt 0.937500 1.000000
vt 0.937500 0.500000
vt 0.921875 1.000000
vt 0.921875 0.500000
vt 0.906250 1.000000
vt 0.906250 0.500000
vt 0.890625 1.000000
vt 0.890625 0.500000
vt 0.875000 1.000000
vt 0.875000 0.500000
vt 0.859375 1.000000
vt 0.859375 0.500000
vt 0.843750 1.000000
vt 0.843750 0.500000
vt 0.828125 1.000000
vt 0.828125 0.500000
vt 0.812500 1.000000
vt 0.812500 0.500000
vt 0.796875 1.000000
vt 0.796875 0.500000
vt 0.781250 1.000000
vt 0.781250 0.500000
vt 0.765625 1.000000
vt 0.765625 0.500000
vt 0.750000 1.000000
vt 0.750000 0.500000
vt 0.734375 1.000000
vt 0.734375 0.500000
vt 0.718750 1.000000
vt 0.718750 0.500000
vt 0.703125 1.000000
vt 0.703125 0.500000
vt 0.687500 1.000000
vt 0.687500 0.500000
vt 0.671875 1.000000
vt 0.671875 0.500000
vt 0.656250 1.000000
vt 0.656250 0.500000
vt 0.640625 1.000000
vt 0.640625 0.500000
vt 0.625000 1.000000
vt 0.625000 0.500000
vt 0.609375 1.000000
vt 0.609375 0.500000
vt 0.593750 1.000000
vt 0.593750 0.500000
vt 0.578125 1.000000
vt 0.578125 0.500000
vt 0.562500 1.000000
vt 0.562500 0.500000
vt 0.546875 1.000000
vt 0.546875 0.500000
vt 0.531250 1.000000
vt 0.531250 0.500000
vt 0.515625 1.000000
vt 0.515625 0.500000
vt 0.500000 0.750000
vt 0.500000 0.500000
vt 0.500000 1.000000
vt 0.250000 0.010000
vt 0.273524 0.011156
vt 0.296822 0.014612
vt 0.319668 0.020334
vt 0.341844 0.028269
vt 0.363135 0.038339
vt 0.383337 0.050447
vt 0.402254 0.064478
vt 0.419706 0.080294
vt 0.435522 0.097746
vt 0.449553 0.116663
vt 0.461661 0.136865
vt 0.471731 0.158156
vt 0.479666 0.180332
vt 0.485388 0.203178
vt 0.488844 0.226476
vt 0.490000 0.250000
vt 0.488844 0.273524
vt 0.485388 0.296822
vt 0.479666 0.319668
vt 0.471731 0.341844
vt 0.461661 0.363135
vt 0.449553 0.383337
vt 0.435522 0.402254
vt 0.419706 0.419706
vt 0.402254 0.435522
vt 0.383337 0.449553
vt 0.363135 0.461661
vt 0.341844 0.471731
vt 0.319668 0.479666
vt 0.296822 0.485388
vt 0.273524 0.488844
vt 0.250000 0.490000
vt 0.773524 0.488844
vt 0.796822 0.485388
vt 0.819668 0.479666
vt 0.841844 0.471731
vt 0.863135 0.461661
vt 0.883337 0.449553
vt 0.902254 0.435522
vt 0.919706 0.419706
vt 0.935522 0.402254
vt 0.949553 0.383337
vt 0.961661 0.363135
vt 0.971731 0.341844
vt 0.979666 0.319668
vt 0.985388 0.296822
vt 0.988844 0.273524
vt 0.990000 0.250000
vt 0.988844 0.226476
vt 0.985388 0.203178
vt 0.979666 0.180332
vt 0.971731 0.158156
vt 0.961661 0.136865
vt 0.949553 0.116663
vt 0.935522 0.097746
vt 0.919706 0.080294
vt 0.902254 0.064478
vt 0.883337 0.050447
vt 0.863135 0.038339
vt 0.841844 0.028269
vt 0.819668 0.020334
vt 0.796822 0.014612
vt 0.773524 0.011156
vt 0.750000 0.010000
vt 0.750000 0.490000
vt 0.438483 0.844241
vt 0.500000 0.875000
vt 0.530759 0.875000
vt 0.561517 0.405759
vt 0.500000 0.375000
vt 0.469241 0.375000
s 0
f 4/1/1 3/2/1 1/3/1 17/4/1 2/5/1
f 3/2/2 4/1/2 6/6/2 5/7/2
f 5/7/3 6/6/3 8/8/3 7/9/3
f 7/9/4 8/8/4 10/10/4 9/11/4
f 9/11/5 10/10/5 12/12/5 11/13/5
f 11/13/6 12/12/6 14/14/6 13/15/6
f 13/15/7 14/14/7 18/16/7 15/17/7
f 15/17/8 18/16/8 20/18/8 19/19/8
f 19/19/9 20/18/9 22/20/9 21/21/9
f 21/21/10 22/20/10 24/22/10 23/23/10
f 23/23/11 24/22/11 26/24/11 25/25/11
f 25/25/12 26/24/12 28/26/12 27/27/12
f 27/27/13 28/26/13 30/28/13 29/29/13
f 29/29/14 30/28/14 32/30/14 31/31/14
f 31/31/15 32/30/15 34/32/15 33/33/15
f 33/33/16 34/32/16 36/34/16 35/35/16
f 35/35/17 36/34/17 38/36/17 37/37/17
f 37/37/18 38/36/18 40/38/18 39/39/18
f 39/39/19 40/38/19 42/40/19 41/41/19
f 41/41/20 42/40/20 44/42/20 43/43/20
f 43/43/21 44/42/21 46/44/21 45/45/21
f 45/45/22 46/44/22 48/46/22 47/47/22
f 47/47/23 48/46/23 50/48/23 49/49/23
f 49/49/24 50/48/24 52/50/24 51/51/24
f 51/51/25 52/50/25 54/52/25 53/53/25
f 53/53/26 54/52/26 56/54/26 55/55/26
f 55/55/27 56/54/27 58/56/27 57/57/27
f 57/57/28 58/56/28 60/58/28 59/59/28
f 59/59/29 60/58/29 62/60/29 61/61/29
f 61/61/30 62/60/30 64/62/30 63/63/30
f 63/63/31 64/62/31 66/64/31 65/65/31
f 16/66/32 67/67/32 65/65/32 66/64/32 68/68/32
f 68/69/33 66/70/33 64/71/33 62/72/33 60/73/33 58/74/33 56/75/33 54/76/33 52/77/33 50/78/33 48/79/33 46/80/33 44/81/33 42/82/33 40/83/33 38/84/33 36/85/33 34/86/33 32/87/33 30/88/33 28/89/33 26/90/33 24/91/33 22/92/33 20/93/33 18/94/33 14/95/33 12/96/33 10/97/33 8/98/33 6/99/33 4/100/33 2/101/33
f 3/102/34 5/103/34 7/104/34 9/105/34 11/106/34 13/107/34 15/108/34 19/109/34 21/110/34 23/111/34 25/112/34 27/113/34 29/114/34 31/115/34 33/116/34 35/117/34 37/118/34 39/119/34 41/120/34 43/121/34 45/122/34 47/123/34 49/124/34 51/125/34 53/126/34 55/127/34 57/128/34 59/129/34 61/130/34 63/131/34 65/132/34 67/133/34 1/134/34
f 67/135/35 16/136/35 68/137/35 2/138/35 17/139/35 1/140/35
